<svg xmlns="http://www.w3.org/2000/svg" width="120" height="120" fill="none" viewBox="0 0 120 120">
    <path fill="#0385DB" d="M60 71.988a35.993 35.993 0 1 1 35.994-35.994A36.1 36.1 0 0 1 60 71.988zm0-59.99a23.997 23.997 0 1 0 23.996 23.996A24.067 24.067 0 0 0 60 11.998z"/>
    <path fill="#0385DB" d="M113.99 119.98a5.67 5.67 0 0 1-5.998-6A41.742 41.742 0 0 0 82.11 75.115a41.733 41.733 0 0 0-16.111-3.126H54.001a41.734 41.734 0 0 0-41.993 41.993 5.669 5.669 0 0 1-5.999 5.999 5.668 5.668 0 0 1-5.999-6 53.766 53.766 0 0 1 53.991-53.99H66a53.766 53.766 0 0 1 53.99 53.99 5.664 5.664 0 0 1-3.647 5.641c-.75.285-1.55.407-2.351.359z"/>
</svg>
